<svg width="24" height="24" viewBox="0 0 24 24" fill="none" xmlns="http://www.w3.org/2000/svg">
<path d="M20.6257 2.625H3.37565C2.96081 2.625 2.62565 2.96016 2.62565 3.375V20.625C2.62565 21.0398 2.96081 21.375 3.37565 21.375H20.6257C21.0405 21.375 21.3757 21.0398 21.3757 20.625V3.375C21.3757 2.96016 21.0405 2.625 20.6257 2.625ZM18.46 8.09766H16.9624C15.7882 8.09766 15.5608 8.65547 15.5608 9.47578V11.2828H18.3639L17.9983 14.1117H15.5608V21.375H12.6382V14.1141H10.1936V11.2828H12.6382V9.19687C12.6382 6.77578 14.1171 5.45625 16.278 5.45625C17.3139 5.45625 18.2022 5.53359 18.4624 5.56875V8.09766H18.46Z" fill="#EBD1EB" fill-opacity="0.62"/>
</svg>
