<svg width="22" height="22" viewBox="0 0 22 22" fill="none" xmlns="http://www.w3.org/2000/svg">
<path d="M10.9999 5.50248C7.95976 5.50248 5.50619 7.95605 5.50619 10.9962C5.50619 14.0364 7.95976 16.49 10.9999 16.49C14.0401 16.49 16.4937 14.0364 16.4937 10.9962C16.4937 7.95605 14.0401 5.50248 10.9999 5.50248ZM10.9999 14.5668C9.03387 14.5668 7.4294 12.9623 7.4294 10.9962C7.4294 9.03016 9.03387 7.4257 10.9999 7.4257C12.966 7.4257 14.5705 9.03016 14.5705 10.9962C14.5705 12.9623 12.966 14.5668 10.9999 14.5668ZM16.7187 3.99712C16.0089 3.99712 15.4357 4.57034 15.4357 5.28016C15.4357 5.98998 16.0089 6.5632 16.7187 6.5632C17.4285 6.5632 18.0017 5.99266 18.0017 5.28016C18.0019 5.11161 17.9689 4.94467 17.9045 4.78891C17.8401 4.63315 17.7456 4.49163 17.6264 4.37244C17.5072 4.25326 17.3657 4.15876 17.2099 4.09436C17.0542 4.02995 16.8872 3.99691 16.7187 3.99712ZM21.7089 10.9962C21.7089 9.51766 21.7223 8.05248 21.6392 6.57659C21.5562 4.8623 21.1651 3.34087 19.9115 2.0873C18.6553 0.831053 17.1365 0.44266 15.4223 0.359624C13.9437 0.276588 12.4785 0.289981 11.0026 0.289981C9.52405 0.289981 8.05887 0.276588 6.58298 0.359624C4.86869 0.44266 3.34726 0.833731 2.09369 2.0873C0.837439 3.34355 0.449046 4.8623 0.36601 6.57659C0.282974 8.05516 0.296367 9.52034 0.296367 10.9962C0.296367 12.4721 0.282974 13.94 0.36601 15.4159C0.449046 17.1302 0.840117 18.6516 2.09369 19.9052C3.34994 21.1614 4.86869 21.5498 6.58298 21.6328C8.06155 21.7159 9.52672 21.7025 11.0026 21.7025C12.4812 21.7025 13.9464 21.7159 15.4223 21.6328C17.1365 21.5498 18.658 21.1587 19.9115 19.9052C21.1678 18.6489 21.5562 17.1302 21.6392 15.4159C21.7249 13.94 21.7089 12.4748 21.7089 10.9962ZM19.3517 17.3123C19.1562 17.7998 18.9205 18.1641 18.5428 18.5391C18.1651 18.9168 17.8035 19.1525 17.316 19.348C15.9071 19.9078 12.5615 19.7819 10.9999 19.7819C9.43833 19.7819 6.09012 19.9078 4.68119 19.3507C4.19369 19.1552 3.8294 18.9194 3.4544 18.5418C3.07672 18.1641 2.84101 17.8025 2.64547 17.315C2.08833 15.9034 2.21422 12.5578 2.21422 10.9962C2.21422 9.43462 2.08833 6.08641 2.64547 4.67748C2.84101 4.18998 3.07672 3.8257 3.4544 3.4507C3.83208 3.0757 4.19369 2.8373 4.68119 2.64177C6.09012 2.08462 9.43833 2.21052 10.9999 2.21052C12.5615 2.21052 15.9098 2.08462 17.3187 2.64177C17.8062 2.8373 18.1705 3.07302 18.5455 3.4507C18.9232 3.82837 19.1589 4.18998 19.3544 4.67748C19.9116 6.08641 19.7857 9.43462 19.7857 10.9962C19.7857 12.5578 19.9115 15.9034 19.3517 17.3123Z" fill="#EBD1EB" fill-opacity="0.62"/>
</svg>
